<svg xmlns="http://www.w3.org/2000/svg"
  width="114.96"
  height="147.8"
  viewBox="0 0 114.96 147.8">
  <g transform="translate(-56.882)">
    <g transform="translate(56.882 7.176)">
      <path
        d="M349.164,433.659a4.181,4.181,0,0,1-4.18-4.181v-23.43a4.182,4.182,0,0,1,4.181-4.181H372.6A4.181,4.181,0,0,1,375.552,409l-23.43,23.43A4.18,4.18,0,0,1,349.164,433.659Zm4.182-23.43v9.155l9.155-9.155Z"
        transform="translate(-261.817 -293.035)"
        fill="#2d527c" />
      <path
        d="M125.737,165.482H67.1a10.231,10.231,0,0,1-10.22-10.22V35.078A10.231,10.231,0,0,1,67.1,24.858h94.519a10.231,10.231,0,0,1,10.22,10.22V137.871a4.183,4.183,0,0,1-1.225,2.956l-23.43,23.43a4.181,4.181,0,1,1-5.913-5.913l22.206-22.206V35.078a1.86,1.86,0,0,0-1.858-1.858H67.1a1.86,1.86,0,0,0-1.858,1.858V155.262a1.86,1.86,0,0,0,1.858,1.858h58.634a4.181,4.181,0,0,1,0,8.363Z"
        transform="translate(-56.883 -24.858)"
        fill="#2d527c" />
    </g>
    <path
      d="M177.964,67.846V45.382a6.039,6.039,0,0,0-6.039-6.039H77.406a6.039,6.039,0,0,0-6.039,6.039V67.846h106.6Z"
      transform="translate(-10.304 -27.986)"
      fill="#cee8fa" />
    <g transform="translate(56.882)">
      <path
        d="M167.661,61.724H61.063a4.181,4.181,0,0,1-4.181-4.181V35.079A10.231,10.231,0,0,1,67.1,24.859h94.519a10.231,10.231,0,0,1,10.22,10.22V57.543A4.181,4.181,0,0,1,167.661,61.724ZM65.244,53.362h98.235V35.079a1.86,1.86,0,0,0-1.858-1.858H67.1a1.86,1.86,0,0,0-1.858,1.858Z"
        transform="translate(-56.882 -17.683)"
        fill="#2d527c" />
      <path
        d="M119.327,23.275a4.181,4.181,0,0,1-4.181-4.181V4.181a4.181,4.181,0,0,1,8.362,0V19.094A4.181,4.181,0,0,1,119.327,23.275Z"
        transform="translate(-98.327 0)"
        fill="#2d527c" />
      <path
        d="M203.573,23.275a4.181,4.181,0,0,1-4.181-4.181V4.181a4.181,4.181,0,1,1,8.362,0V19.094A4.181,4.181,0,0,1,203.573,23.275Z"
        transform="translate(-158.253 0)"
        fill="#2d527c" />
      <path
        d="M287.821,23.275a4.182,4.182,0,0,1-4.181-4.181V4.181a4.181,4.181,0,1,1,8.362,0V19.094A4.182,4.182,0,0,1,287.821,23.275Z"
        transform="translate(-218.181 0)"
        fill="#2d527c" />
      <path
        d="M372.068,23.275a4.182,4.182,0,0,1-4.181-4.181V4.181a4.181,4.181,0,1,1,8.362,0V19.094A4.182,4.182,0,0,1,372.068,23.275Z"
        transform="translate(-278.109 0)"
        fill="#2d527c" />
      <path
        d="M119.327,255a4.181,4.181,0,0,1-4.181-4.181V183.78a4.181,4.181,0,0,1,8.362,0v67.036A4.181,4.181,0,0,1,119.327,255Z"
        transform="translate(-98.327 -127.754)"
        fill="#2d527c" />
    </g>
  </g>
</svg>