<svg xmlns="http://www.w3.org/2000/svg" width="114.96" height="147.8" viewBox="0 0 115 148">
    <!-- Clipboard Outer Frame & Bottom Notch -->
    <path fill="#2d527c"
        d="M10.22 7.18H104.74A10.23 10.23 0 0 1 114.96 17.4V120.3a4.18 4.18 0 0 1-1.23 2.95l-23.43 23.43a4.18 4.18 0 0 1-5.91-5.91l22.2-22.21V17.4a1.86 1.86 0 0 0-1.85-1.86H10.22A1.86 1.86 0 0 0 8.36 17.4v120.18a1.86 1.86 0 0 0 1.86 1.86h58.63a4.18 4.18 0 1 1 0 8.36H10.22A10.23 10.23 0 0 1 0 137.58V17.4A10.23 10.23 0 0 1 10.22 7.18z" />

    <!-- Bottom Corner Fold Indicator -->
    <path fill="#2d527c"
        d="M87.35 117.19v23.43a4.18 4.18 0 0 1-8.36 0v-23.43a4.18 4.18 0 0 1 4.18-4.18h23.43a4.18 4.18 0 0 1 2.96 7.13l-22.21 22.21a4.18 4.18 0 0 1-5.91-5.91l9.15-9.16z" />

    <!-- Paper / Header Background Accent -->
    <path fill="#cee8fa" d="M67.1 11.36h100.56a6.04 6.04 0 0 1 6.04 6.04v22.46H61.06V17.4a6.04 6.04 0 0 1 6.04-6.04z"
        transform="translate(-61.06 -4.18)" />

    <!-- Top Clip Header Frame -->
    <path fill="#2d527c"
        d="M110.78 44.04H4.18A4.18 4.18 0 0 1 0 39.86V17.4A10.23 10.23 0 0 1 10.22 7.18h94.52A10.23 10.23 0 0 1 114.96 17.4v22.46a4.18 4.18 0 0 1-4.18 4.18zM8.36 35.68h98.24V17.4a1.86 1.86 0 0 0-1.86-1.86H10.22A1.86 1.86 0 0 0 8.36 17.4z" />

    <!-- Metal Ring Clips -->
    <path fill="#2d527c"
        d="M21 0a4.18 4.18 0 0 1 4.18 4.18v14.91a4.18 4.18 0 1 1-8.36 0V4.18A4.18 4.18 0 0 1 21 0zm25.33 0a4.18 4.18 0 0 1 4.18 4.18v14.91a4.18 4.18 0 1 1-8.36 0V4.18A4.18 4.18 0 0 1 46.33 0zm25.33 0a4.18 4.18 0 0 1 4.18 4.18v14.91a4.18 4.18 0 1 1-8.36 0V4.18A4.18 4.18 0 0 1 71.66 0zm25.33 0a4.18 4.18 0 0 1 4.18 4.18v14.91a4.18 4.18 0 1 1-8.36 0V4.18A4.18 4.18 0 0 1 96.99 0z" />

    <!-- Inner Vertical Divider / Marker Line -->
    <path fill="#2d527c"
        d="M21 56.03a4.18 4.18 0 0 1 4.18 4.18v67.04a4.18 4.18 0 1 1-8.36 0V60.21A4.18 4.18 0 0 1 21 56.03z" />
</svg>
